<?xml version="1.0" standalone="no"?>
<!DOCTYPE svg PUBLIC "-//W3C//DTD SVG 20010904//EN"
 "http://www.w3.org/TR/2001/REC-SVG-20010904/DTD/svg10.dtd">
<svg version="1.0" xmlns="http://www.w3.org/2000/svg"
 width="474.000000pt" height="474.000000pt" viewBox="0 0 474.000000 474.000000"
 preserveAspectRatio="xMidYMid meet">

<g transform="translate(0.000000,474.000000) scale(0.100000,-0.100000)"
fill="#000000" stroke="none">
<path d="M844 3067 c-229 -238 -439 -557 -517 -787 -92 -269 -30 -498 166
-614 85 -51 179 -71 322 -70 223 2 410 56 820 237 143 63 418 185 610 270 193
85 490 217 660 292 171 75 569 252 885 392 316 140 607 269 647 286 40 17 71
32 70 34 -2 1 -340 -90 -753 -203 -1700 -465 -2283 -623 -2354 -639 -172 -38
-324 -29 -442 26 -232 110 -267 355 -103 723 25 55 43 101 42 103 -2 1 -26
-21 -53 -50z"/>
</g>
</svg>
